<svg width="104" height="120" fill="none" xmlns="http://www.w3.org/2000/svg"><g clip-path="url(#prefix__clip0_1388_5907)"><path d="M51.966 1.475l7.84 4.527 3.2 1.85 4.673 2.693v11.504l.64.37 2.968 1.712 23.512 13.577 3.008 1.736 3.974 2.295.866.501v47.02l-8.185 4.728-2.872 1.656-28.584 16.502-3.2 1.848-2.645 1.528-1.85 1.065-3.348 1.935-23.46-13.547-12.39-7.154-10.908-6.295-1.224-.704-2.699-1.563V30.737L36.49 10.412l2.785-1.609 7.498-4.329 1.67-.966 3.527-2.033h-.003zm.003-1.477h-.013L47.804 2.39l-1.673.968-7.497 4.327-2.781 1.617L0 30v60l3.343 1.92 1.224.705 10.904 6.295 12.392 7.152L51.956 120h.009l3.988-2.307 1.847-1.062 2.65-1.529 3.2-1.848L92.231 96.75l2.872-1.656L103.929 90V41.503l-1.505-.872-3.974-2.295-3.01-1.736-23.512-13.577-2.968-1.713V9.806l-5.31-3.064-3.2-1.848L51.97 0v-.002z" fill="#9F00FF"/><path d="M51.966 1.475l7.84 4.527 3.2 1.85 4.673 2.693v11.504l.64.37 2.968 1.712 23.512 13.577 3.008 1.736 3.974 2.295.866.501v47.02l-8.185 4.728-2.872 1.656-28.584 16.502-3.2 1.848-2.645 1.528-1.85 1.065-3.348 1.935-23.46-13.547-12.39-7.154-10.908-6.295-1.224-.704-2.699-1.563V30.737L36.49 10.412l2.785-1.609 7.498-4.329 1.67-.966 3.527-2.033h-.003zm.003-1.477h-.013L47.804 2.39l-1.673.968-7.497 4.327-2.781 1.617L0 30v60l3.343 1.92 1.224.705 10.904 6.295 12.392 7.152L51.956 120h.009l3.988-2.307 1.847-1.062 2.65-1.529 3.2-1.848L92.231 96.75l2.872-1.656L103.929 90V41.503l-1.505-.872-3.974-2.295-3.01-1.736-23.512-13.577-2.968-1.713V9.806l-5.31-3.064-3.2-1.848L51.97 0v-.002z" fill="#9F00FF"/><path d="M16.96 90.144l-1.272.735-1.616-.927 1.28-.745 1.608.937zM22.744 93.48l-1.281.735-1.608-.928 1.273-.735 1.616.927zM28.52 96.816l-1.28.735-1.61-.928 1.282-.735 1.607.927zM34.305 100.151l-1.281.736-1.609-.928 1.273-.735 1.617.927zM40.079 103.487l-1.272.736-1.617-.928 1.281-.735 1.608.927zM45.856 106.823l-1.272.736-1.616-.928 1.28-.735 1.608.927z" fill="#9F00FF"/><path d="M16.96 90.144l-1.272.735-1.616-.927 1.28-.745 1.608.937zM22.744 93.48l-1.281.735-1.608-.928 1.273-.735 1.616.927zM28.52 96.816l-1.28.735-1.61-.928 1.282-.735 1.607.927zM34.305 100.151l-1.281.736-1.609-.928 1.273-.735 1.617.927zM40.079 103.487l-1.272.736-1.617-.928 1.281-.735 1.608.927zM45.856 106.823l-1.272.736-1.616-.928 1.28-.735 1.608.927z" fill="#5C2A7A"/><path d="M51.956 22.86L84.52 40.925v38.139L51.956 97.133 19.392 79.065V40.926l32.564-18.067zm0-6.24L14.404 38.3v43.376L51.93 103.35l.024.016L89.52 81.677V38.302L51.956 16.62z" fill="#9F00FF"/><path d="M51.96 7.847V8.96l-.007-.01L7.937 34.368v50.745l-.96.552v-51.85l.239-.142L51.953 7.84l.008.007zM96.936 59.535v26.216L67.16 102.934l-8.001 4.624-5.032 2.905-.96.552v-1.112l.96-.553 4.064-2.343 8.007-4.624 29.778-17.185V60.086l.959-.55z" fill="#9F00FF"/><path d="M51.96 7.847V8.96l-.007-.01L7.937 34.368v50.745l-.96.552v-51.85l.239-.142L51.953 7.84l.008.007zM96.936 59.535v26.216L67.16 102.934l-8.001 4.624-5.032 2.905-.96.552v-1.112l.96-.553 4.064-2.343 8.007-4.624 29.778-17.185V60.086l.959-.55z" fill="#9F00FF"/><path d="M51.96 7.847V8.96l-.007-.01L7.937 34.368v50.745l-.96.552v-51.85l.239-.142L51.953 7.84l.008.007zM96.936 59.535v26.216L67.16 102.934l-8.001 4.624-5.032 2.905-.96.552v-1.112l.96-.553 4.064-2.343 8.007-4.624 29.778-17.185V60.086l.959-.55z" fill="#5C2A7A"/><path d="M103.928 29.999v7.536l-.279-.16-3.985-2.296-3-1.736-24.737-14.28v-7.536l20.169 11.64 3.008 1.736L99.08 27.2l1.598.928 1.602.92 1.647.952z" fill="#9F00FF"/><path d="M103.928 29.999v7.536l-.279-.16-3.985-2.296-3-1.736-24.737-14.28v-7.536l20.169 11.64 3.008 1.736L99.08 27.2l1.598.928 1.602.92 1.647.952z" fill="#9F00FF"/></g><defs><clipPath id="prefix__clip0_1388_5907"><path fill="#fff" d="M0 0h103.928v120H0z"/></clipPath></defs></svg>