<svg xmlns="http://www.w3.org/2000/svg" width="574" height="96" fill="none" viewBox="0 0 574 96"><g clip-path="url(#clip0_14274_20351)"><g fill="#fffea2" clip-path="url(#clip1_14274_20351)"><path d="M499.188 76.022H498.187C496.311 76.027 494.509 75.287 493.178 73.965 493.154 73.942 493.131 73.918 493.108 73.896 491.824 72.57 491.108 70.795 491.114 68.949V67.952C491.114 67.922 491.103 67.892 491.082 67.87 491.062 67.848 491.033 67.835 491.003 67.833 490.988 67.833 490.972 67.835 490.958 67.841 490.944 67.846 490.931 67.855 490.92 67.865 490.909 67.876 490.9 67.889 490.894 67.903 490.888 67.917 490.885 67.932 490.885 67.947V68.949C490.891 70.795 490.175 72.57 488.89 73.896 488.868 73.919 488.844 73.942 488.822 73.965 487.49 75.287 485.688 76.027 483.812 76.022H482.813C482.783 76.022 482.754 76.034 482.732 76.055 482.711 76.077 482.699 76.106 482.699 76.136 482.699 76.166 482.711 76.195 482.732 76.217 482.754 76.238 482.783 76.25 482.813 76.25H483.815C485.661 76.245 487.436 76.961 488.762 78.245L488.831 78.314C490.153 79.646 490.892 81.448 490.887 83.324V84.32C490.886 84.35 490.897 84.38 490.918 84.402 490.939 84.424 490.967 84.437 490.997 84.439 491.013 84.439 491.028 84.437 491.042 84.431 491.056 84.426 491.069 84.418 491.081 84.407 491.092 84.396 491.1 84.383 491.106 84.369 491.112 84.355 491.115 84.34 491.115 84.325V83.324C491.11 81.447 491.85 79.646 493.172 78.314L493.241 78.245C494.567 76.961 496.342 76.245 498.188 76.25H499.19C499.22 76.25 499.249 76.238 499.271 76.217 499.292 76.195 499.304 76.166 499.304 76.136 499.304 76.121 499.301 76.106 499.295 76.092 499.29 76.078 499.281 76.065 499.27 76.055 499.259 76.044 499.247 76.036 499.232 76.03 499.218 76.024 499.203 76.021 499.188 76.022ZM526.204 16.135H525.203C523.326 16.14 521.525 15.4 520.193 14.078 520.17 14.056 520.147 14.032 520.125 14.009 518.84 12.683 518.124 10.908 518.13 9.062V8.067C518.13 8.037 518.119 8.007 518.098 7.985 518.078 7.963 518.049 7.95 518.019 7.948 518.004 7.947 517.989 7.95 517.974 7.955 517.96 7.961 517.947 7.969 517.936 7.98 517.925 7.991 517.916 8.003 517.91 8.018 517.904 8.032 517.901 8.047 517.901 8.062V9.064C517.906 10.91 517.191 12.685 515.906 14.01 515.884 14.034 515.859 14.057 515.837 14.08 514.506 15.402 512.704 16.142 510.828 16.136H509.826C509.796 16.136 509.767 16.148 509.745 16.17 509.724 16.191 509.712 16.22 509.712 16.251 509.712 16.281 509.724 16.31 509.745 16.332 509.767 16.353 509.796 16.365 509.826 16.365H510.828C512.674 16.36 514.449 17.076 515.775 18.36L515.844 18.429C517.166 19.76 517.906 21.562 517.901 23.438V24.435C517.901 24.465 517.912 24.494 517.932 24.517 517.953 24.539 517.981 24.552 518.012 24.554 518.027 24.554 518.042 24.552 518.057 24.546 518.071 24.541 518.084 24.532 518.095 24.522 518.106 24.511 518.115 24.498 518.121 24.484 518.127 24.47 518.13 24.455 518.13 24.439V23.438C518.124 21.562 518.864 19.759 520.186 18.427L520.255 18.358C521.581 17.074 523.356 16.358 525.202 16.363H526.204C526.219 16.363 526.234 16.36 526.248 16.355 526.262 16.349 526.274 16.34 526.285 16.33 526.295 16.319 526.304 16.307 526.31 16.293 526.315 16.279 526.318 16.264 526.318 16.249 526.318 16.234 526.315 16.219 526.309 16.205 526.304 16.191 526.295 16.179 526.284 16.168 526.274 16.158 526.261 16.149 526.247 16.144 526.233 16.138 526.219 16.135 526.204 16.135ZM490.93 34.596H490.315C489.165 34.6 488.06 34.146 487.243 33.336L487.2 33.293C486.413 32.48 485.974 31.392 485.977 30.26V29.648C485.978 29.629 485.971 29.612 485.958 29.598 485.945 29.584 485.928 29.576 485.909 29.575 485.9 29.575 485.89 29.577 485.882 29.58 485.873 29.583 485.865 29.588 485.858 29.595 485.851 29.601 485.846 29.609 485.842 29.618 485.839 29.627 485.837 29.636 485.837 29.645V30.26C485.84 31.392 485.401 32.48 484.613 33.293L484.571 33.336C483.754 34.146 482.649 34.6 481.499 34.596H480.885C480.866 34.596 480.848 34.604 480.835 34.617 480.822 34.63 480.815 34.648 480.815 34.666 480.815 34.685 480.822 34.703 480.835 34.716 480.848 34.729 480.866 34.736 480.885 34.737H481.499C482.631 34.733 483.72 35.172 484.533 35.96 484.547 35.974 484.561 35.988 484.575 36.002 485.386 36.819 485.839 37.924 485.835 39.075V39.686C485.835 39.704 485.842 39.722 485.855 39.736 485.867 39.75 485.885 39.758 485.904 39.759 485.913 39.759 485.922 39.758 485.931 39.754 485.94 39.751 485.948 39.746 485.954 39.739 485.961 39.733 485.967 39.725 485.97 39.716 485.974 39.708 485.976 39.698 485.976 39.689V39.075C485.972 37.924 486.426 36.819 487.236 36.002L487.278 35.96C488.091 35.172 489.18 34.733 490.312 34.737H490.926C490.945 34.736 490.963 34.729 490.976 34.716 490.989 34.703 490.996 34.685 490.996 34.666 490.996 34.648 490.989 34.631 490.977 34.618 490.965 34.605 490.948 34.597 490.93 34.596ZM515.863 67.725H515.49C514.791 67.727 514.119 67.451 513.623 66.958L513.597 66.932C513.119 66.438 512.852 65.776 512.854 65.088V64.714C512.854 64.708 512.853 64.703 512.851 64.697 512.849 64.692 512.846 64.686 512.843 64.682 512.839 64.678 512.834 64.674 512.829 64.672 512.824 64.669 512.818 64.668 512.812 64.668 512.806 64.667 512.801 64.668 512.795 64.67 512.79 64.672 512.785 64.676 512.781 64.679 512.777 64.683 512.774 64.688 512.772 64.693 512.769 64.699 512.768 64.704 512.768 64.71V65.083C512.77 65.772 512.503 66.434 512.024 66.928L511.999 66.954C511.502 67.447 510.831 67.722 510.132 67.721H509.759C509.747 67.721 509.736 67.725 509.728 67.734 509.72 67.742 509.716 67.752 509.716 67.764 509.716 67.775 509.72 67.786 509.728 67.794 509.737 67.802 509.747 67.806 509.759 67.806H510.132C510.82 67.804 511.482 68.071 511.977 68.55L512.003 68.576C512.495 69.072 512.771 69.743 512.77 70.443V70.816C512.77 70.822 512.77 70.828 512.772 70.833 512.774 70.838 512.777 70.844 512.781 70.848 512.785 70.852 512.79 70.856 512.795 70.858 512.8 70.861 512.806 70.862 512.812 70.863 512.817 70.863 512.823 70.862 512.828 70.86 512.834 70.857 512.839 70.854 512.843 70.85 512.847 70.846 512.85 70.842 512.852 70.836 512.854 70.831 512.855 70.825 512.855 70.82V70.446C512.854 69.747 513.13 69.076 513.623 68.58L513.648 68.554C514.143 68.075 514.805 67.808 515.493 67.81H515.866C515.878 67.81 515.888 67.806 515.896 67.798 515.904 67.79 515.909 67.779 515.909 67.768 515.909 67.762 515.908 67.756 515.905 67.751 515.903 67.745 515.899 67.741 515.895 67.737 515.891 67.733 515.886 67.729 515.88 67.728 515.875 67.726 515.869 67.725 515.863 67.725ZM502.356 44.294H501.983C501.284 44.295 500.613 44.019 500.116 43.527L500.091 43.501C499.612 43.006 499.345 42.344 499.347 41.656V41.283C499.347 41.277 499.346 41.271 499.345 41.265 499.343 41.26 499.34 41.255 499.336 41.251 499.332 41.246 499.327 41.243 499.322 41.24 499.317 41.238 499.311 41.236 499.305 41.236 499.3 41.236 499.294 41.237 499.289 41.239 499.283 41.241 499.279 41.244 499.275 41.248 499.27 41.252 499.267 41.257 499.265 41.262 499.263 41.267 499.262 41.273 499.261 41.278V41.652C499.264 42.34 498.997 43.002 498.518 43.496L498.492 43.523C497.996 44.015 497.324 44.291 496.625 44.29H496.252C496.241 44.29 496.23 44.294 496.222 44.302 496.214 44.31 496.209 44.321 496.209 44.332 496.209 44.338 496.21 44.343 496.213 44.349 496.215 44.354 496.218 44.359 496.222 44.363 496.226 44.367 496.23 44.37 496.236 44.372 496.241 44.374 496.246 44.375 496.252 44.375H496.625C497.314 44.373 497.976 44.64 498.47 45.119L498.496 45.145C498.988 45.641 499.264 46.312 499.263 47.011V47.385C499.262 47.391 499.263 47.396 499.265 47.402 499.267 47.407 499.27 47.412 499.274 47.417 499.278 47.421 499.282 47.425 499.288 47.427 499.293 47.43 499.299 47.431 499.304 47.431 499.31 47.432 499.316 47.431 499.321 47.429 499.326 47.426 499.331 47.423 499.335 47.419 499.339 47.415 499.343 47.411 499.345 47.405 499.347 47.4 499.348 47.395 499.348 47.389V47.016C499.347 46.316 499.623 45.645 500.115 45.149L500.141 45.123C500.636 44.644 501.298 44.377 501.986 44.379H502.36C502.371 44.379 502.382 44.375 502.39 44.367 502.398 44.359 502.403 44.348 502.403 44.336 502.403 44.331 502.401 44.325 502.399 44.319 502.397 44.314 502.393 44.309 502.389 44.305 502.384 44.301 502.379 44.298 502.374 44.296 502.368 44.294 502.362 44.294 502.356 44.294ZM540.838 20.736H540.701C540.446 20.737 540.2 20.636 540.019 20.456L540.01 20.447C539.835 20.266 539.738 20.025 539.738 19.773V19.637C539.738 19.633 539.737 19.629 539.734 19.626 539.731 19.623 539.727 19.621 539.723 19.621 539.719 19.621 539.715 19.623 539.712 19.626 539.709 19.629 539.707 19.633 539.707 19.637V19.773C539.708 20.025 539.61 20.266 539.435 20.447L539.426 20.456C539.245 20.636 538.999 20.737 538.744 20.736H538.608C538.603 20.736 538.6 20.738 538.597 20.741 538.594 20.744 538.592 20.748 538.592 20.752 538.592 20.756 538.594 20.76 538.597 20.763 538.6 20.766 538.603 20.767 538.608 20.767H538.744C538.995 20.767 539.237 20.864 539.417 21.039L539.427 21.049C539.607 21.23 539.708 21.475 539.707 21.73V21.866C539.707 21.869 539.707 21.871 539.707 21.873 539.708 21.875 539.709 21.877 539.711 21.879 539.712 21.881 539.714 21.882 539.716 21.883 539.718 21.884 539.72 21.885 539.723 21.885 539.725 21.885 539.727 21.884 539.729 21.883 539.731 21.882 539.733 21.881 539.735 21.879 539.736 21.877 539.737 21.875 539.738 21.873 539.739 21.871 539.739 21.869 539.738 21.866V21.73C539.738 21.475 539.838 21.229 540.018 21.048L540.028 21.039C540.208 20.864 540.45 20.766 540.701 20.767H540.838C540.842 20.767 540.846 20.765 540.849 20.762 540.852 20.759 540.853 20.755 540.853 20.751 540.853 20.747 540.851 20.744 540.848 20.741 540.846 20.738 540.842 20.736 540.838 20.736ZM538.462 10.031H538.207C537.729 10.032 537.27 9.844 536.931 9.508L536.914 9.49C536.587 9.152 536.404 8.7 536.406 8.23V7.977C536.406 7.969 536.403 7.961 536.398 7.956 536.393 7.95 536.385 7.947 536.378 7.946 536.374 7.946 536.37 7.947 536.366 7.948 536.363 7.95 536.359 7.952 536.357 7.954 536.354 7.957 536.352 7.96 536.35 7.964 536.349 7.968 536.348 7.971 536.348 7.975V8.23C536.349 8.7 536.167 9.152 535.84 9.49L535.822 9.508C535.483 9.844 535.025 10.032 534.547 10.031H534.292C534.285 10.031 534.277 10.034 534.272 10.04 534.266 10.045 534.263 10.053 534.263 10.06 534.263 10.068 534.266 10.075 534.272 10.081 534.277 10.086 534.285 10.089 534.292 10.089H534.548C535.018 10.088 535.47 10.27 535.808 10.597L535.825 10.615C536.162 10.954 536.35 11.412 536.349 11.89V12.144C536.349 12.151 536.352 12.159 536.357 12.164 536.362 12.17 536.369 12.173 536.377 12.174 536.381 12.174 536.385 12.173 536.388 12.172 536.392 12.171 536.395 12.168 536.398 12.166 536.401 12.163 536.403 12.16 536.404 12.156 536.406 12.153 536.407 12.149 536.407 12.145V11.89C536.406 11.413 536.594 10.954 536.93 10.615 536.936 10.609 536.942 10.603 536.948 10.597 537.286 10.27 537.738 10.088 538.208 10.089H538.463C538.471 10.089 538.478 10.086 538.483 10.081 538.489 10.075 538.492 10.068 538.492 10.06 538.492 10.056 538.491 10.053 538.49 10.049 538.488 10.046 538.486 10.042 538.483 10.04 538.481 10.037 538.477 10.035 538.474 10.033 538.47 10.032 538.466 10.031 538.462 10.031ZM509.697 89.99H509.56C509.305 89.991 509.059 89.89 508.878 89.71 508.875 89.707 508.872 89.704 508.869 89.701 508.694 89.52 508.596 89.279 508.597 89.027V88.893C508.598 88.891 508.597 88.889 508.597 88.886 508.596 88.884 508.595 88.882 508.594 88.88 508.592 88.878 508.59 88.877 508.588 88.876 508.586 88.875 508.584 88.875 508.581 88.875 508.579 88.875 508.577 88.875 508.575 88.876 508.573 88.877 508.571 88.878 508.569 88.88 508.568 88.882 508.567 88.884 508.566 88.886 508.566 88.889 508.565 88.891 508.566 88.893V89.029C508.567 89.281 508.469 89.523 508.294 89.703L508.285 89.713C508.104 89.893 507.858 89.993 507.603 89.993H507.466C507.464 89.993 507.462 89.993 507.46 89.994 507.459 89.995 507.457 89.996 507.455 89.997 507.454 89.999 507.453 90 507.452 90.002 507.451 90.004 507.451 90.006 507.451 90.008 507.451 90.012 507.453 90.016 507.455 90.019 507.458 90.022 507.462 90.024 507.466 90.024H507.603C507.854 90.023 508.096 90.121 508.277 90.295 508.28 90.298 508.283 90.302 508.286 90.305 508.466 90.486 508.567 90.732 508.566 90.987V91.122C508.566 91.127 508.567 91.131 508.57 91.134 508.573 91.137 508.577 91.139 508.581 91.139 508.585 91.139 508.589 91.137 508.592 91.134 508.595 91.131 508.597 91.127 508.597 91.123V90.987C508.596 90.732 508.697 90.486 508.877 90.305L508.886 90.295C509.067 90.121 509.309 90.023 509.56 90.024H509.697C509.701 90.024 509.705 90.022 509.708 90.019 509.71 90.016 509.712 90.012 509.712 90.008 509.712 90.006 509.712 90.004 509.712 90.001 509.711 89.999 509.71 89.997 509.708 89.996 509.707 89.994 509.705 89.993 509.703 89.992 509.701 89.991 509.699 89.99 509.697 89.99ZM487.022 57.406H486.885C486.63 57.407 486.385 57.306 486.204 57.126L486.194 57.116C486.019 56.936 485.922 56.694 485.923 56.443V56.307C485.923 56.303 485.921 56.299 485.918 56.296 485.915 56.293 485.911 56.291 485.907 56.291 485.905 56.291 485.903 56.291 485.901 56.292 485.899 56.293 485.897 56.294 485.896 56.295 485.895 56.297 485.893 56.298 485.893 56.3 485.892 56.302 485.891 56.304 485.891 56.306V56.443C485.892 56.694 485.795 56.936 485.62 57.116L485.611 57.126C485.429 57.306 485.184 57.406 484.928 57.406H484.792C484.788 57.406 484.784 57.408 484.781 57.41 484.778 57.413 484.777 57.417 484.777 57.421 484.777 57.425 484.778 57.429 484.781 57.432 484.784 57.435 484.788 57.437 484.792 57.437H484.928C485.18 57.436 485.422 57.534 485.602 57.709L485.611 57.718C485.791 57.899 485.892 58.145 485.891 58.4V58.536C485.891 58.54 485.893 58.544 485.896 58.547 485.899 58.55 485.902 58.552 485.906 58.552 485.908 58.552 485.911 58.552 485.913 58.551 485.914 58.55 485.916 58.549 485.918 58.548 485.919 58.546 485.921 58.545 485.921 58.543 485.922 58.541 485.923 58.539 485.923 58.537V58.4C485.922 58.145 486.023 57.899 486.203 57.718L486.212 57.709C486.393 57.534 486.634 57.436 486.885 57.437H487.022C487.026 57.437 487.03 57.435 487.033 57.432 487.036 57.429 487.038 57.425 487.038 57.421 487.038 57.417 487.036 57.413 487.033 57.41 487.03 57.408 487.026 57.406 487.022 57.406ZM502.993 29.002H502.857C502.601 29.002 502.356 28.902 502.175 28.722L502.166 28.712C501.991 28.531 501.893 28.29 501.894 28.038V27.903C501.894 27.899 501.892 27.895 501.889 27.892 501.887 27.889 501.883 27.887 501.879 27.887 501.876 27.887 501.874 27.887 501.872 27.888 501.87 27.888 501.869 27.89 501.867 27.891 501.866 27.892 501.865 27.894 501.864 27.896 501.863 27.898 501.863 27.9 501.863 27.902V28.04C501.863 28.291 501.766 28.533 501.591 28.713L501.582 28.723C501.4 28.903 501.155 29.004 500.899 29.003H500.763C500.761 29.003 500.759 29.003 500.757 29.004 500.755 29.005 500.754 29.006 500.752 29.008 500.751 29.009 500.75 29.011 500.749 29.013 500.748 29.014 500.748 29.016 500.748 29.018 500.748 29.023 500.749 29.027 500.752 29.03 500.755 29.032 500.759 29.034 500.763 29.034H500.899C501.151 29.033 501.393 29.13 501.573 29.305L501.583 29.314C501.763 29.495 501.864 29.74 501.863 29.996V30.131C501.863 30.134 501.863 30.136 501.863 30.138 501.864 30.141 501.865 30.143 501.867 30.144 501.868 30.146 501.87 30.148 501.872 30.149 501.874 30.15 501.876 30.15 501.879 30.15 501.881 30.15 501.883 30.15 501.885 30.149 501.888 30.148 501.889 30.146 501.891 30.144 501.892 30.143 501.893 30.141 501.894 30.138 501.895 30.136 501.895 30.134 501.894 30.131V29.995C501.894 29.74 501.994 29.495 502.174 29.313L502.184 29.304C502.364 29.129 502.606 29.032 502.857 29.032H502.994C502.998 29.032 503.002 29.031 503.005 29.028 503.008 29.025 503.009 29.021 503.009 29.017 503.009 29.015 503.009 29.013 503.008 29.011 503.007 29.009 503.006 29.007 503.004 29.006 503.003 29.004 503.001 29.003 502.999 29.003 502.997 29.002 502.995 29.002 502.993 29.002Z"/></g><g filter="url(#filter0_f_14274_20351)"><path fill="#fdfba4" d="M594.19 31.5636L562.865 23.5721L540.293 46.6865L549.029 77.8098L580.35 85.8038L602.927 62.6845L594.195 31.5587L594.19 31.5636Z"/></g><g fill="#ffce63" clip-path="url(#clip2_14274_20351)"><path d="M524.956 34.1377L530.296 35.4996L540.52 25.0543L550.727 14.6147L550.722 14.586L549.234 9.27945L549.191 9.13195L524.836 34.0662L524.956 34.1377Z"/><path d="M620.632 14.6158L620.625 14.6093L619.117 14.2283L619.111 14.2228L605.297 10.6932L575.945 3.20591L562.244 -0.294088L561.681 -0.444298L559.16 -1.08283L551.921 6.32939L552.166 7.1958L554.095 14.058L554.289 14.7538L554.506 15.5465L554.513 15.5663L531.373 39.259L531.354 39.2515L530.749 39.0974L529.863 38.8759L529.844 38.8706L522.191 36.9152L522.082 36.8922L514.842 44.3055L519.27 60.0865L526.45 85.6846L527.366 88.9589L529.845 97.7752L530.4 99.7481L531.555 103.88L531.973 105.365L531.968 105.371L593.452 121.084L600.692 113.67L598.098 104.427L621.235 80.7362L627.392 82.3017L629.024 82.7254L630.538 83.1118L637.777 75.6996L620.632 14.6158ZM553.443 6.72895L553.45 6.72224L556.783 3.29844L559.581 0.433228L561.331 0.877612L562.844 1.26403L563.241 1.3676L575.611 4.51659L604.962 12.0039L618.029 15.3424L619.537 15.7234L636.274 75.302L630.129 81.5945L629.257 81.3695L628.608 81.2037L626.978 80.7811L620.822 79.2146L596.58 104.036L596.573 104.043L599.166 113.276L593.027 119.562L533.068 104.251L533.056 104.239L531.895 100.125L531.483 98.6108L531.35 98.1518L528.872 89.3343L527.955 86.0601L520.786 60.4696L516.352 44.6953L522.505 38.395L524.443 38.8924L530.286 40.3809L530.976 40.5572L531.751 40.8176L556.07 15.8926L553.443 6.71791"/><path d="M620.632 14.6158L620.625 14.6093L619.117 14.2283L619.111 14.2228L605.297 10.6932L575.945 3.20591L562.244 -0.294088L561.681 -0.444298L559.16 -1.08283L551.921 6.32939L552.166 7.1958L554.095 14.058L554.289 14.7538L554.506 15.5465L554.513 15.5663L531.373 39.259L531.354 39.2515L530.749 39.0974L529.863 38.8759L529.844 38.8706L522.191 36.9152L522.082 36.8922L514.842 44.3055L519.27 60.0865L526.45 85.6846L527.366 88.9589L529.845 97.7752L530.4 99.7481L531.555 103.88L531.973 105.365L531.968 105.371L593.452 121.084L600.692 113.67L598.098 104.427L621.235 80.7362L627.392 82.3017L629.024 82.7254L630.538 83.1118L637.777 75.6996L620.632 14.6158ZM553.443 6.72895L553.45 6.72224L556.783 3.29844L559.581 0.433228L561.331 0.877612L562.844 1.26403L563.241 1.3676L575.611 4.51659L604.962 12.0039L618.029 15.3424L619.537 15.7234L636.274 75.302L630.129 81.5945L629.257 81.3695L628.608 81.2037L626.978 80.7811L620.822 79.2146L596.58 104.036L596.573 104.043L599.166 113.276L593.027 119.562L533.068 104.251L533.056 104.239L531.895 100.125L531.483 98.6108L531.35 98.1518L528.872 89.3343L527.955 86.0601L520.786 60.4696L516.352 44.6953L522.505 38.395L524.443 38.8924L530.286 40.3809L530.976 40.5572L531.751 40.8176L556.07 15.8926L553.443 6.71791" style="mix-blend-mode:color-dodge"/><path d="M607.267 28.3122L617.569 65.0276L617.731 65.5957L619.232 70.9728L588.285 102.66L545.358 91.6932L533.384 49.0404L564.336 17.3488L607.267 28.3122ZM608.358 27.1947L608.339 27.1894L563.919 15.8471L531.874 48.6572L544.262 92.7975L544.269 92.8151L544.28 92.8149L588.712 104.169L620.752 71.3647L619.034 65.2313L618.871 64.6588L608.369 27.2321L608.357 27.1958L608.358 27.1947Z"/><path d="M607.267 28.312 617.569 65.028 617.731 65.596 619.232 70.973 588.285 102.66 545.358 91.693 533.384 49.04 564.336 17.349 607.267 28.312ZM608.358 27.195 608.339 27.189 563.919 15.847 531.874 48.657 544.262 92.798 544.269 92.815 544.28 92.815 588.712 104.169 620.752 71.365 619.034 65.231 618.871 64.659 608.369 27.232 608.357 27.196 608.358 27.195ZM524.956 34.138 530.296 35.5 540.52 25.054 550.727 14.615 550.722 14.586 549.234 9.279 549.191 9.132 524.836 34.066 524.956 34.138Z" style="mix-blend-mode:color-dodge"/><path d="M606.777 21.574 568.002 11.666 570.731 8.872 605.721 17.813 606.777 21.574ZM584.611 108.358 581.881 111.154 546.891 102.212 545.836 98.45 584.611 108.358ZM586.512 49.54 572.354 45.927 562.151 56.374 566.098 70.442 580.255 74.056 590.46 63.607 586.514 49.538 586.512 49.54Z"/></g><g clip-path="url(#clip3_14274_20351)" filter="url(#filter1_f_14274_20351)"><path fill="#fffea2" fill-opacity="0.1" d="M438.621 30.4885C448.379 30.4885 456.289 22.5518 456.289 12.7613C456.289 2.9709 448.379 -4.96582 438.621 -4.96582C428.864 -4.96582 420.954 2.9709 420.954 12.7613C420.954 22.5518 428.864 30.4885 438.621 30.4885Z"/><path fill="#fffea2" fill-opacity="0.2" d="M503.186 59.167C510.445 59.167 516.329 53.2629 516.329 45.9798C516.329 38.6966 510.445 32.7925 503.186 32.7925C495.927 32.7925 490.043 38.6966 490.043 45.9798C490.043 53.2629 495.927 59.167 503.186 59.167Z"/><path fill="#fffea2" fill-opacity="0.1" d="M487.431 99.3594C493.369 99.3594 498.182 94.5295 498.182 88.5715C498.182 82.6136 493.369 77.7837 487.431 77.7837C481.493 77.7837 476.679 82.6136 476.679 88.5715C476.679 94.5295 481.493 99.3594 487.431 99.3594Z"/><path fill="#fffea2" fill-opacity="0.2" d="M538.662 66.036C539.821 66.036 540.761 65.093 540.761 63.93 540.761 62.766 539.821 61.823 538.662 61.823 537.502 61.823 536.562 62.766 536.562 63.93 536.562 65.093 537.502 66.036 538.662 66.036ZM441.854 45.957C443.014 45.957 443.954 45.014 443.954 43.85 443.954 42.687 443.014 41.744 441.854 41.744 440.695 41.744 439.755 42.687 439.755 43.85 439.755 45.014 440.695 45.957 441.854 45.957ZM490.663 65.222C491.823 65.222 492.763 64.279 492.763 63.115 492.763 61.952 491.823 61.008 490.663 61.008 489.504 61.008 488.564 61.952 488.564 63.115 488.564 64.279 489.504 65.222 490.663 65.222ZM476.487 18.505C477.646 18.505 478.586 17.561 478.586 16.398 478.586 15.234 477.646 14.291 476.487 14.291 475.327 14.291 474.387 15.234 474.387 16.398 474.387 17.561 475.327 18.505 476.487 18.505Z"/><g fill="#ffce63" clip-path="url(#clip4_14274_20351)" filter="url(#filter2_f_14274_20351)"><path d="M524.956 34.1377L530.296 35.4996L540.52 25.0543L550.727 14.6147L550.722 14.586L549.234 9.27945L549.191 9.13195L524.836 34.0662L524.956 34.1377Z"/><path d="M620.631 14.6158L620.625 14.6093L619.117 14.2283L619.111 14.2228L605.297 10.6932L575.945 3.20591L562.243 -0.294088L561.681 -0.444298L559.16 -1.08283L551.921 6.32939L552.166 7.1958L554.095 14.058L554.289 14.7538L554.506 15.5465L554.513 15.5663L531.373 39.259L531.354 39.2515L530.749 39.0974L529.863 38.8759L529.844 38.8706L522.19 36.9152L522.082 36.8922L514.842 44.3055L519.269 60.0865L526.45 85.6846L527.366 88.9589L529.845 97.7752L530.4 99.7481L531.555 103.88L531.973 105.365L531.968 105.371L593.452 121.084L600.692 113.67L598.097 104.427L621.235 80.7362L627.392 82.3017L629.024 82.7254L630.537 83.1118L637.777 75.6996L620.631 14.6158ZM553.443 6.72895L553.45 6.72224L556.783 3.29844L559.581 0.433228L561.331 0.877612L562.844 1.26403L563.241 1.3676L575.611 4.51659L604.962 12.0039L618.029 15.3424L619.537 15.7234L636.274 75.302L630.128 81.5945L629.256 81.3695L628.608 81.2037L626.977 80.7811L620.822 79.2146L596.58 104.036L596.573 104.043L599.166 113.276L593.027 119.562L533.068 104.251L533.056 104.239L531.895 100.125L531.483 98.6108L531.35 98.1518L528.872 89.3343L527.954 86.0601L520.786 60.4696L516.352 44.6953L522.505 38.395L524.443 38.8924L530.286 40.3809L530.976 40.5572L531.75 40.8176L556.07 15.8926L553.443 6.71791"/><path d="M620.631 14.6158L620.625 14.6093L619.117 14.2283L619.111 14.2228L605.297 10.6932L575.945 3.20591L562.243 -0.294088L561.681 -0.444298L559.16 -1.08283L551.921 6.32939L552.166 7.1958L554.095 14.058L554.289 14.7538L554.506 15.5465L554.513 15.5663L531.373 39.259L531.354 39.2515L530.749 39.0974L529.863 38.8759L529.844 38.8706L522.19 36.9152L522.082 36.8922L514.842 44.3055L519.269 60.0865L526.45 85.6846L527.366 88.9589L529.845 97.7752L530.4 99.7481L531.555 103.88L531.973 105.365L531.968 105.371L593.452 121.084L600.692 113.67L598.097 104.427L621.235 80.7362L627.392 82.3017L629.024 82.7254L630.537 83.1118L637.777 75.6996L620.631 14.6158ZM553.443 6.72895L553.45 6.72224L556.783 3.29844L559.581 0.433228L561.331 0.877612L562.844 1.26403L563.241 1.3676L575.611 4.51659L604.962 12.0039L618.029 15.3424L619.537 15.7234L636.274 75.302L630.128 81.5945L629.256 81.3695L628.608 81.2037L626.977 80.7811L620.822 79.2146L596.58 104.036L596.573 104.043L599.166 113.276L593.027 119.562L533.068 104.251L533.056 104.239L531.895 100.125L531.483 98.6108L531.35 98.1518L528.872 89.3343L527.954 86.0601L520.786 60.4696L516.352 44.6953L522.505 38.395L524.443 38.8924L530.286 40.3809L530.976 40.5572L531.75 40.8176L556.07 15.8926L553.443 6.71791" style="mix-blend-mode:color-dodge"/><path d="M607.266 28.3122L617.569 65.0276L617.731 65.5957L619.232 70.9728L588.285 102.66L545.358 91.6932L533.384 49.0404L564.336 17.3488L607.266 28.3122ZM608.358 27.1947L608.339 27.1894L563.919 15.8471L531.874 48.6572L544.262 92.7975L544.268 92.8151L544.28 92.8149L588.712 104.169L620.751 71.3647L619.034 65.2313L618.871 64.6588L608.369 27.2321L608.357 27.1958L608.358 27.1947Z"/><path d="M607.266 28.312 617.569 65.028 617.731 65.596 619.232 70.973 588.285 102.66 545.358 91.693 533.384 49.04 564.336 17.349 607.266 28.312ZM608.358 27.195 608.339 27.189 563.919 15.847 531.874 48.657 544.262 92.798 544.268 92.815 544.28 92.815 588.712 104.169 620.751 71.365 619.034 65.231 618.871 64.659 608.369 27.232 608.357 27.196 608.358 27.195ZM524.956 34.138 530.296 35.5 540.52 25.054 550.727 14.615 550.722 14.586 549.234 9.279 549.191 9.132 524.836 34.066 524.956 34.138Z" style="mix-blend-mode:color-dodge"/><path d="M606.777 21.574 568.002 11.666 570.731 8.872 605.721 17.813 606.777 21.574ZM584.611 108.358 581.881 111.154 546.891 102.212 545.836 98.45 584.611 108.358ZM586.512 49.54 572.354 45.927 562.151 56.374 566.098 70.442 580.255 74.056 590.46 63.607 586.514 49.538 586.512 49.54Z"/></g></g></g><defs><clipPath id="clip0_14274_20351"><rect width="574" height="96" fill="#fff" rx="6"/></clipPath><clipPath id="clip1_14274_20351"><path fill="#fff" d="M0 0H140V140H0z" transform="translate(476 -33)"/></clipPath><clipPath id="clip2_14274_20351"><path fill="#fff" d="M0 0H109.891V126.877H0z" transform="rotate(44.324 319.847 701.713)"/></clipPath><clipPath id="clip3_14274_20351"><path fill="#fff" d="M0 0H309V291H0z" transform="translate(351 -64)"/></clipPath><clipPath id="clip4_14274_20351"><path fill="#fff" d="M0 0H109.891V126.877H0z" transform="rotate(44.324 319.847 701.713)"/></clipPath><filter id="filter0_f_14274_20351" width="462.634" height="462.231" x="340.293" y="-176.428" color-interpolation-filters="sRGB" filterUnits="userSpaceOnUse"><feFlood flood-opacity="0" result="BackgroundImageFix"/><feBlend in="SourceGraphic" in2="BackgroundImageFix" result="shape"/><feGaussianBlur result="effect1_foregroundBlur_14274_20351" stdDeviation="100"/></filter><filter id="filter1_f_14274_20351" width="321.6" height="303.6" x="344.7" y="-70.3" color-interpolation-filters="sRGB" filterUnits="userSpaceOnUse"><feFlood flood-opacity="0" result="BackgroundImageFix"/><feBlend in="SourceGraphic" in2="BackgroundImageFix" result="shape"/><feGaussianBlur result="effect1_foregroundBlur_14274_20351" stdDeviation="3.15"/></filter><filter id="filter2_f_14274_20351" width="220.667" height="220.95" x="465.973" y="-50.4754" color-interpolation-filters="sRGB" filterUnits="userSpaceOnUse"><feFlood flood-opacity="0" result="BackgroundImageFix"/><feBlend in="SourceGraphic" in2="BackgroundImageFix" result="shape"/><feGaussianBlur result="effect1_foregroundBlur_14274_20351" stdDeviation="13.35"/></filter></defs></svg>