<svg width="104" height="120" fill="none" xmlns="http://www.w3.org/2000/svg"><path d="M92.108 96.676l-4.512-2.608-.024-.017-11.96 6.905-11.968 6.921v5.374h.007L88.46 98.923l3.64-2.096.145-.087-.137-.064zM92.236 23.238l-3.776-2.174-12.393-7.154-12.416-7.175h-.007v5.375l11.968 6.92 11.96 6.905.024-.017 4.512-2.607.137-.064-.009-.009zM51.957 18.093l36.287 20.95v41.901l-36.286 20.949-36.287-20.949V39.043l36.286-20.95zm0-1.478l-.025.017-37.54 21.672v43.379l37.554 21.68v.009l.008-.009h.009l37.56-21.68v-43.38L51.97 16.63h-.009l-.007-.009.003-.006z" fill="#FF2F3E"/><path d="M51.957 18.093l36.287 20.95v41.901l-36.286 20.949-36.287-20.949V39.043l36.286-20.95zm0-1.478l-.025.017-37.54 21.672v43.379l37.554 21.68v.009l.008-.009h.009l37.56-21.68v-43.38L51.97 16.63h-.009l-.007-.009.003-.006zM4.657 59.992L4.64 46.168.127 43.56 0 43.53v32.968l.127-.072 4.514-2.608.023-.016-.007-13.81zM92.108 96.676l-4.512-2.608-.024-.017-11.96 6.905-11.968 6.921v5.374h.007L88.46 98.923l3.64-2.096.145-.087-.137-.064zM92.236 23.238l-3.776-2.174-12.393-7.154-12.416-7.175h-.007v5.375l11.968 6.92 11.96 6.905.024-.017 4.512-2.607.137-.064-.009-.009z" fill="#FF2F3E"/><path d="M4.657 59.992L4.64 46.168.127 43.56 0 43.53v32.968l.127-.072 4.514-2.608.023-.016-.007-13.81zM16.337 25.918l.025.017 11.96-6.904 11.968-6.92V6.734h-.007l-24.81 14.329-3.785 2.183.136.064 4.513 2.607zM28.321 100.956l-11.96-6.905-.024.017-4.513 2.608-.136.064 2.376 1.375 21.786 12.578 2.784 1.607 1.656.951v-5.374l-11.969-6.921zM103.804 43.56l-4.512 2.608-.015 13.824-.008 13.81.023.016 4.512 2.608.129.072V43.53l-.129.031z" fill="#FF2F3E"/><path d="M95.453 94.884h.01l1.255-.72.225-.136.03-.023 1.265-.72.352-.21.137-.07.031-.024.792-.457h.01l.222-.136.33-.192.486-.28.032-.024.792-.455h.009l.167-.098.464-.27.969-.553v-.007l.443-.257.049-.024.408-.232v-9.792l-.103-.056-.482-.281-.495-.288-.785-.443-1.159-.671-.105-.065-.479-.28-.496-.287-.785-.444-1.158-.67-.049-.025-1.28-.74-.432-.255-.049-.025V44.33l.59-.343.969-.552.313-.185.295-.167.673-.392.59-.344.609-.353.08-.04.591-.344 1.279-.739.49-.273.48-.272.895-.52v-9.804l-1.207-.696-1.817-1.048-2.383-1.377-1.809-1.047-1.216-.703-.048-.025-.976.543-.313.176-.911.529-.08.049-2.16 1.247-.591.336-.096.057-1.182.68-.97.56-.016.007-.583.336-1.743-1-.01-.007-16.36-9.425-1.74-1.016-1.28-.739v-.007l-1.162-.664-1.279-.738-.48-.281-.104-.064-.048-.025-1.111-.64-1.281-.738-.479-.28-.049-.03-.007-7.475V6.35L60.46 4.9v-.008l-.376-.215-.52-.296-.32-.192h-.008l-.912-.527v-.008l-.886-.512-.376-.216-.521-.296-.32-.192h-.008l-.912-.527-1.6-.92-.456-.265-.232-.136L51.978 0l-.304.168-.408.241-.184.111-.376.217-.088.048-.504.288-.28.16-.032.024-.817.472-.24.147-.503.296-.28.158-.968.552-.664.385v.008l-.184.104-.785.443-.2.112-.032.024v.009l-1.625.935v.009l.024 1.448v.148l-.042 7.464-.081.047-.504.288-.312.185-1.056.614-.504.288-1.28.74-1.808 1.033-.391.223-.504.288-.465.265-.504.295-.312.184-1.056.616-.506.288L21.054 26.9l-1.272.739-.248.148-.351.208h-.01l-1.263.739h-.017l-.952.552-.248.148-.347.196h-.016l-1.633-.945-.095-.055-.008-.007h-.008l-.264-.148-.984-.567-.033-.024-1.625-.944-.097-.056-.28-.161-.984-.567-.536-.321h-.007l-.249-.148-.184-.103-.856-.473-.087.049-.817.471-.359.208-.697.408-1.79 1.02-1.84 1.056-.04.023-.968.553-.016.016-.216.12-.023.016-1.241.712-.376.225-.016.015v9.792l.049.024 1.76 1.016 1.263.729v.009l1.76 1.015 1.28.738.665.384.495.296.59.335v31.325l-.832.472-.064.04-.007.01-1.8 1.033-.443.247-.529.305-.07.048-1.274.739-.528.304-.443.249-.497.295-1.375.792V90l.049.023 1.76 1.017 1.263.739 1.76 1.016 2.44 1.408 1.201.687 7.864-4.52.048.024.487.28 1.258.738 1.127.649.148.087.487.28.689.392.487.28 2.535 1.477.49.279 16.37 9.441 1.279.739 1.743.992.008 7.464v.148l-.024 1.447.52.304.408.241.384.215.495.296.52.304 1.625.944.383.216.048.024.785.456.183.112.609.343.52.305h.007l.712.407h.01l.199.122.784.456.296.167 1.272-.739.6-.351.969-.553 1.272-.739 3.472-2h.007l.897-.529-.024-1.463v-.128l.008-7.473.352-.207.24-.137.968-.568.071-.04.24-.137.352-.207.97-.552 1.28-.739.59-.344 12.802-7.377 1.773-1.024h.007l.673-.391.384-.225.808-.473h.009l.67-.39.296-.16h.007l.673-.394 1.2-.694.088-.049.232-.127 1.773-1.025h.007l.672-.392.05.024 7.835 4.487zm-7.472-5.776l-.35-.2-.026-.017-.016-.007h-.007l-.288.168-.673.392h-.016l-.295.168-.887.52-.672.393h-.016l-.785.443-.168.104-.015.009-1.104.64-.08.048-.673.392-.015.007-1.105.64-2.191 1.248-.672.393-.017.008-.951.543-.016.01-1.182.686-.672.392-.017.009-6.5 3.736-1.296.739-3.398 1.959-1.872 1.089-.968.558-1.873 1.098v1.488l-.01 6.744.01.839-.84.489-.057.031v.009l-.08.04-1.736 1.008-.136.08-.832.472-.056.031v.009l-.08.04-.545.321-1.192.687-.087.048-.049.031-.911.529-.6.343-.16-.094-.569-.328-.127-.073-.336-.184-.148-.089-.121-.071-.287-.168-.76-.444-.497-.295-.024-.016-.607-.343-.49-.296-.147-.072-1.129-.647v-.009l-.047-.024-.096-.056-.121-.072-1-.584-.497-.295-.047-.024.016-.864-.007-6.728v-1.463l-.64-.368-1.377-.792-.64-.368-.368-.208-1.136-.656-16.457-9.48-4.2-2.424-2.327-1.365-.689-.399-.047-.025-.544-.319-7.857 4.536-1.08-.624-.128-.072-.232-.136-.287-.168-.28-.168-.129-.072-.232-.128-1.28-.74-.456-.271-.127-.072-.232-.136-.93-.537-1.279-.738-.48-.28-.023-.016-.024-.016V80.94l.59-.345 1.282-.738 5.976-3.449v-.279l.007-.009V44.33l-.007-.471v-.272l-.096-.056-.344-.2-.136-.081-.953-.544-.328-.192-.031-.023-1.129-.648-.007-.008-.096-.057-1.182-.672-.257-.148-.327-.193-.049-.024-1.128-.648-.031-.015v-.009l-1.233-.71-.48-.281-.047-.026V30.73l.352-.2.03-.016.209-.12.968-.568.072-.04.04-.024.2-.112v-.009l.353-.2.032-.016.584-.335.351-.2 1.064-.617.217-.127.04-.024.24-.136.311-.184 1.478-.84.663-.385.443.24.049.024.056.033 1.625.944.033.024.728.416.047.024.328.192.104.056h.016l.08.049.009.007.03.017.026.016.527.303.345.2.752.444.08.04.728.424.338.193.104.056.016.008.12.065v.007h.016l.536.32.344.2.047.024.05.024.287.168.328-.192h.017l.302-.176.625-.36.705-.415.232-.136.303-.178.625-.359.024-.016h.016l.304-.176.624-.36.495-.288.217-.129.232-.136.304-.174.624-.36.496-.289 12.28-7.072 5.937-3.418v-.007l.886-.504 1.872-1.087.977-.56v-1.47l.007-6.753-.016-.832v-.015l.393-.225.215-.12.905-.52.063-.04.096-.055.017-.01.184-.103.016-.009.952-.55v-.01l.542-.311.065-.04.096-.056.016-.008.201-.112.952-.551.03-.018.505-.286 1.056-.616.081-.05h.015l.217-.128.504-.295.087-.047.04.023h.009l.487.28.633.367.59.353.024.017 1.13.647.021.009.026.016.264.148.703.409.24.148.025.008h.007l.49.28.75.443.521.303.024.016.264.148.703.408.241.147-.008.863.008 6.737v1.478l.048.023 1.76 1.017 1.264.739 1.76 1.016 2.44 1.408 1.76 1.016 15.096 8.69.377.222.304.176h.008l.583.337.68.392 1.065.608.009.008v-.002l.375.225.305.175.59.337.033-.016.296-.168.712-.408.24-.136-.008-.009.009-.007.59-.345.033-.016.296-.167.71-.409.241-.136.016-.007.712-.408.232-.148.071-.049.53-.302.03-.017.296-.168.712-.408.03-.024.426-.24.896-.52.063-.031.689-.393.473.273.047.024h.007l2.432 1.407.148.08.443.265h.007l.633.36v.008l1.279.738.52.305.148.08 1.08.625v8.31l-.897.522-.671.391-.065.033-1.072.614-.444.25-.6.352-.833.487-.443.248-.527.296-.444.248v.009l-.6.344-.831.488-.443.248V76.41l.047.025.65.367.63.37.434.255.647.375.665.384.647.368.63.37.482.271h.017l.63.368.361.2v.008l.12.071.147.089.887.504.121.072.739.417v8.32l-.089.055-.591.328-.225.136-.079.04-.704.417-.184.096-.785.456-.056.032-.76.443-.04.023-.231.136-.785.457-.192.105-.802.483-.103.065-.658.375-.038.024-.265.148h-.007l-.591.344-.009-.008-7.465-4.292z" fill="#FF2F3E"/><path d="M95.453 94.884h.01l1.255-.72.225-.136.03-.023 1.265-.72.352-.21.137-.07.031-.024.792-.457h.01l.222-.136.33-.192.486-.28.032-.024.792-.455h.009l.167-.098.464-.27.969-.553v-.007l.443-.257.049-.024.408-.232v-9.792l-.103-.056-.482-.281-.495-.288-.785-.443-1.159-.671-.105-.065-.479-.28-.496-.287-.785-.444-1.158-.67-.049-.025-1.28-.74-.432-.255-.049-.025V44.33l.59-.343.969-.552.313-.185.295-.167.673-.392.59-.344.609-.353.08-.04.591-.344 1.279-.739.49-.273.48-.272.895-.52v-9.804l-1.207-.696-1.817-1.048-2.383-1.377-1.809-1.047-1.216-.703-.048-.025-.976.543-.313.176-.911.529-.08.049-2.16 1.247-.591.336-.096.057-1.182.68-.97.56-.016.007-.583.336-1.743-1-.01-.007-16.36-9.425-1.74-1.016-1.28-.739v-.007l-1.162-.664-1.279-.738-.48-.281-.104-.064-.048-.025-1.111-.64-1.281-.738-.479-.28-.049-.03-.007-7.475V6.35L60.46 4.9v-.008l-.376-.215-.52-.296-.32-.192h-.008l-.912-.527v-.008l-.886-.512-.376-.216-.521-.296-.32-.192h-.008l-.912-.527-1.6-.92-.456-.265-.232-.136L51.978 0l-.304.168-.408.241-.184.111-.376.217-.088.048-.504.288-.28.16-.032.024-.817.472-.24.147-.503.296-.28.158-.968.552-.664.385v.008l-.184.104-.785.443-.2.112-.032.024v.009l-1.625.935v.009l.024 1.448v.148l-.042 7.464-.081.047-.504.288-.312.185-1.056.614-.504.288-1.28.74-1.808 1.033-.391.223-.504.288-.465.265-.504.295-.312.184-1.056.616-.506.288L21.054 26.9l-1.272.739-.248.148-.351.208h-.01l-1.263.739h-.017l-.952.552-.248.148-.347.196h-.016l-1.633-.945-.095-.055-.008-.007h-.008l-.264-.148-.984-.567-.033-.024-1.625-.944-.097-.056-.28-.161-.984-.567-.536-.321h-.007l-.249-.148-.184-.103-.856-.473-.087.049-.817.471-.359.208-.697.408-1.79 1.02-1.84 1.056-.04.023-.968.553-.016.016-.216.12-.023.016-1.241.712-.376.225-.016.015v9.792l.049.024 1.76 1.016 1.263.729v.009l1.76 1.015 1.28.738.665.384.495.296.59.335v31.325l-.832.472-.064.04-.007.01-1.8 1.033-.443.247-.529.305-.07.048-1.274.739-.528.304-.443.249-.497.295-1.375.792V90l.049.023 1.76 1.017 1.263.739 1.76 1.016 2.44 1.408 1.201.687 7.864-4.52.048.024.487.28 1.258.738 1.127.649.148.087.487.28.689.392.487.28 2.535 1.477.49.279 16.37 9.441 1.279.739 1.743.992.008 7.464v.148l-.024 1.447.52.304.408.241.384.215.495.296.52.304 1.625.944.383.216.048.024.785.456.183.112.609.343.52.305h.007l.712.407h.01l.199.122.784.456.296.167 1.272-.739.6-.351.969-.553 1.272-.739 3.472-2h.007l.897-.529-.024-1.463v-.128l.008-7.473.352-.207.24-.137.968-.568.071-.04.24-.137.352-.207.97-.552 1.28-.739.59-.344 12.802-7.377 1.773-1.024h.007l.673-.391.384-.225.808-.473h.009l.67-.39.296-.16h.007l.673-.394 1.2-.694.088-.049.232-.127 1.773-1.025h.007l.672-.392.05.024 7.835 4.487zm-7.472-5.776l-.35-.2-.026-.017-.016-.007h-.007l-.288.168-.673.392h-.016l-.295.168-.887.52-.672.393h-.016l-.785.443-.168.104-.015.009-1.104.64-.08.048-.673.392-.015.007-1.105.64-2.191 1.248-.672.393-.017.008-.951.543-.016.01-1.182.686-.672.392-.017.009-6.5 3.736-1.296.739-3.398 1.959-1.872 1.089-.968.558-1.873 1.098v1.488l-.01 6.744.01.839-.84.489-.057.031v.009l-.08.04-1.736 1.008-.136.08-.832.472-.056.031v.009l-.08.04-.545.321-1.192.687-.087.048-.049.031-.911.529-.6.343-.16-.094-.569-.328-.127-.073-.336-.184-.148-.089-.121-.071-.287-.168-.76-.444-.497-.295-.024-.016-.607-.343-.49-.296-.147-.072-1.129-.647v-.009l-.047-.024-.096-.056-.121-.072-1-.584-.497-.295-.047-.024.016-.864-.007-6.728v-1.463l-.64-.368-1.377-.792-.64-.368-.368-.208-1.136-.656-16.457-9.48-4.2-2.424-2.327-1.365-.689-.399-.047-.025-.544-.319-7.857 4.536-1.08-.624-.128-.072-.232-.136-.287-.168-.28-.168-.129-.072-.232-.128-1.28-.74-.456-.271-.127-.072-.232-.136-.93-.537-1.279-.738-.48-.28-.023-.016-.024-.016V80.94l.59-.345 1.282-.738 5.976-3.449v-.279l.007-.009V44.33l-.007-.471v-.272l-.096-.056-.344-.2-.136-.081-.953-.544-.328-.192-.031-.023-1.129-.648-.007-.008-.096-.057-1.182-.672-.257-.148-.327-.193-.049-.024-1.128-.648-.031-.015v-.009l-1.233-.71-.48-.281-.047-.026V30.73l.352-.2.03-.016.209-.12.968-.568.072-.04.04-.024.2-.112v-.009l.353-.2.032-.016.584-.335.351-.2 1.064-.617.217-.127.04-.024.24-.136.311-.184 1.478-.84.663-.385.443.24.049.024.056.033 1.625.944.033.024.728.416.047.024.328.192.104.056h.016l.08.049.009.007.03.017.026.016.527.303.345.2.752.444.08.04.728.424.338.193.104.056.016.008.12.065v.007h.016l.536.32.344.2.047.024.05.024.287.168.328-.192h.017l.302-.176.625-.36.705-.415.232-.136.303-.178.625-.359.024-.016h.016l.304-.176.624-.36.495-.288.217-.129.232-.136.304-.174.624-.36.496-.289 12.28-7.072 5.937-3.418v-.007l.886-.504 1.872-1.087.977-.56v-1.47l.007-6.753-.016-.832v-.015l.393-.225.215-.12.905-.52.063-.04.096-.055.017-.01.184-.103.016-.009.952-.55v-.01l.542-.311.065-.04.096-.056.016-.008.201-.112.952-.551.03-.018.505-.286 1.056-.616.081-.05h.015l.217-.128.504-.295.087-.047.04.023h.009l.487.28.633.367.59.353.024.017 1.13.647.021.009.026.016.264.148.703.409.24.148.025.008h.007l.49.28.75.443.521.303.024.016.264.148.703.408.241.147-.008.863.008 6.737v1.478l.048.023 1.76 1.017 1.264.739 1.76 1.016 2.44 1.408 1.76 1.016 15.096 8.69.377.222.304.176h.008l.583.337.68.392 1.065.608.009.008v-.002l.375.225.305.175.59.337.033-.016.296-.168.712-.408.24-.136-.008-.009.009-.007.59-.345.033-.016.296-.167.71-.409.241-.136.016-.007.712-.408.232-.148.071-.049.53-.302.03-.017.296-.168.712-.408.03-.024.426-.24.896-.52.063-.031.689-.393.473.273.047.024h.007l2.432 1.407.148.08.443.265h.007l.633.36v.008l1.279.738.52.305.148.08 1.08.625v8.31l-.897.522-.671.391-.065.033-1.072.614-.444.25-.6.352-.833.487-.443.248-.527.296-.444.248v.009l-.6.344-.831.488-.443.248V76.41l.047.025.65.367.63.37.434.255.647.375.665.384.647.368.63.37.482.271h.017l.63.368.361.2v.008l.12.071.147.089.887.504.121.072.739.417v8.32l-.089.055-.591.328-.225.136-.079.04-.704.417-.184.096-.785.456-.056.032-.76.443-.04.023-.231.136-.785.457-.192.105-.802.483-.103.065-.658.375-.038.024-.265.148h-.007l-.591.344-.009-.008-7.465-4.292z" fill="#FF2F3E"/></svg>