<svg xmlns="http://www.w3.org/2000/svg" width="24" height="24" fill="none" viewBox="0 0 24 24"><path fill="#a4b1cd" fill-rule="evenodd" d="M3.0596 2C3.64481 2 4.11921 2.4744 4.11921 3.0596V20.9404C4.11921 21.5256 3.64481 22 3.0596 22C2.4744 22 2 21.5256 2 20.9404V3.0596C2 2.4744 2.4744 2 3.0596 2Z" clip-rule="evenodd"/><path fill="#a4b1cd" fill-rule="evenodd" d="M12.3711 4.48244C10.2398 3.17099 7.64691 2.84119 5.25519 3.57734ZM5.25519 3.57734C5.25529 3.57731 5.25508 3.57738 5.25519 3.57734ZM5.25519 3.57734C5.25529 3.57731 5.25508 3.57738 5.25519 3.57734ZM5.25519 3.57734L2.7487 4.34741C2.1893 4.51927 1.87514 5.11208 2.04701 5.67147C2.21887 6.23087 2.81167 6.54503 3.37107 6.37317L5.87756 5.6031C7.68661 5.04615 9.64851 5.29537 11.2606 6.28736C13.3402 7.56677 15.8617 7.91357 18.2094 7.24298L19.8811 6.76527V15.44C19.8811 16.0252 20.3555 16.4996 20.9407 16.4996C21.5259 16.4996 22.0003 16.0252 22.0003 15.44V6.54598C21.9997 5.93345 21.712 5.35561 21.223 4.98667C20.7341 4.61773 20.1004 4.49937 19.5112 4.66692L17.6274 5.20527C17.6275 5.20526 17.6274 5.20529 17.6274 5.20527C15.8516 5.71246 13.9441 5.45017 12.3711 4.48244M2.00028 15.44C2.00028 14.8548 2.47468 14.3804 3.05988 14.3804H6.84496C7.43016 14.3804 7.90457 14.8548 7.90457 15.44C7.90457 16.0252 7.43016 16.4996 6.84496 16.4996H3.05988C2.47468 16.4996 2.00028 16.0252 2.00028 15.44Z" clip-rule="evenodd"/><path fill="#a4b1cd" d="M13.9891 14.9076C15.1427 14.9076 16.0779 13.9724 16.0779 12.8189C16.0779 11.6653 15.1427 10.7301 13.9891 10.7301C12.8356 10.7301 11.9004 11.6653 11.9004 12.8189C11.9004 13.9724 12.8356 14.9076 13.9891 14.9076Z"/><path fill="#a4b1cd" fill-rule="evenodd" d="M13.99 11.26C13.129 11.26 12.431 11.958 12.431 12.819 12.431 13.68 13.129 14.378 13.99 14.378 14.851 14.378 15.549 13.68 15.549 12.819 15.549 11.958 14.851 11.26 13.99 11.26ZM11.371 12.819C11.371 11.373 12.544 10.2 13.99 10.2 15.436 10.2 16.608 11.373 16.608 12.819 16.608 14.265 15.436 15.437 13.99 15.437 12.544 15.437 11.371 14.265 11.371 12.819ZM10.408 20.941C10.408 18.963 12.011 17.36 13.989 17.36 15.967 17.36 17.57 18.963 17.57 20.941H10.408Z" clip-rule="evenodd"/><path fill="#a4b1cd" fill-rule="evenodd" d="M10.9843 20.4106H16.9945C16.7437 18.9782 15.4937 17.8895 13.9894 17.8895C12.4852 17.8895 11.2352 18.9782 10.9843 20.4106ZM9.87891 20.9404C9.87891 18.6702 11.7193 16.8299 13.9894 16.8299C16.2596 16.8299 18.1 18.6702 18.1 20.9404V21.4702H9.87891V20.9404Z" clip-rule="evenodd"/></svg>