<svg xmlns="http://www.w3.org/2000/svg" width="24px" height="24px" viewBox="0 0 24 24"><title>ic-userblood</title><g id="ic-userblood" fill="none" fill-rule="evenodd" stroke="none" stroke-linecap="round" stroke-linejoin="round" stroke-width="1"><g id="Group-41-Copy-2" transform="translate(4 2)"><g id="Group" stroke="#ff2f3e" stroke-width="1.5"><g id="Light"><path id="Shape" d="M6.55172414,17.3456897 C5.52687544,17.3484511 4.54257332,16.9455566 3.8137931,16.225"/><path d="M7.96034483,2.03103448 C7.52931034,1.30517241 7.16982759,0.703448276 6.91982759,0.292241379 C6.84159437,0.163825779 6.70209369,0.0854625023 6.55172414,0.0854625023 C6.40135458,0.0854625023 6.26185391,0.163825779 6.18362069,0.292241379 C4.8137931,2.53706897 0.0862068966,10.4603448 0.0862068966,13.4931034 C0.0862068966,17.06391 2.9809176,19.9586206 6.55172414,19.9586206 C10.1225307,19.9586206 13.0172414,17.06391 13.0172414,13.4931034 C13.0157502,13.2909839 12.9990362,13.0892638 12.9672414,12.8896552"/></g></g><g id="Group-19" stroke="#fff" transform="translate(9.224 2.069)"><g id="Group-17"><ellipse id="Oval" cx="2.81609195" cy="1.76005747" rx="1.64272031" ry="1.76005747"/><path d="M0,7.71072797 C0,6.04435157 1.26080731,4.69348659 2.81609195,4.69348659 C4.37137659,4.69348659 5.63218391,6.04435157 5.63218391,7.71072797 L0,7.71072797 Z"/></g></g></g></g></svg>